grf
version=1
nRows=21
nColumns=46
inDegrees=yes
endheader
time	ground_force_1_vx	ground_force_1_vy	ground_force_1_vz	ground_force_1_px	ground_force_1_py	ground_force_1_pz	ground_moment_1_mx	ground_moment_1_my	ground_moment_1_mz	ground_force_2_vx	ground_force_2_vy	ground_force_2_vz	ground_force_2_px	ground_force_2_py	ground_force_2_pz	ground_moment_2_mx	ground_moment_2_my	ground_moment_2_mz	ground_force_3_vx	ground_force_3_vy	ground_force_3_vz	ground_force_3_px	ground_force_3_py	ground_force_3_pz	ground_moment_3_mx	ground_moment_3_my	ground_moment_3_mz	ground_force_4_vx	ground_force_4_vy	ground_force_4_vz	ground_force_4_px	ground_force_4_py	ground_force_4_pz	ground_moment_4_mx	ground_moment_4_my	ground_moment_4_mz	ground_force_5_vx	ground_force_5_vy	ground_force_5_vz	ground_force_5_px	ground_force_5_py	ground_force_5_pz	ground_moment_5_mx	ground_moment_5_my	ground_moment_5_mz
0.000000	0.000000	0.000000	0.000000	0.000000	0.000000	0.000000	0.000000	0.000000	0.000000	0.000000	0.000000	0.000000	0.000000	0.000000	0.000000	0.000000	0.000000	0.000000	0.000000	0.000000	0.000000	0.000000	0.000000	0.000000	0.000000	0.000000	0.000000	47.707647	405.317018	1.210635	1.068882	0.000000	0.242684	-0.000000	4.239152	0.000000	-45.818058	458.029546	-2.774625	1.388921	0.000000	0.251168	0.000000	-3.097255	0.000000
0.000500	0.000000	0.000000	0.000000	0.000000	0.000000	0.000000	0.000000	0.000000	0.000000	0.000000	0.000000	0.000000	0.000000	0.000000	0.000000	0.000000	0.000000	0.000000	0.000000	0.000000	0.000000	0.000000	0.000000	0.000000	0.000000	0.000000	0.000000	47.708900	405.306179	1.225513	1.068888	0.000000	0.242675	-0.000000	4.236256	0.000000	-45.787626	458.086716	-2.765990	1.388927	0.000000	0.251178	0.000000	-3.099653	0.000000
0.001000	0.000000	0.000000	0.000000	0.000000	0.000000	0.000000	0.000000	0.000000	0.000000	0.000000	0.000000	0.000000	0.000000	0.000000	0.000000	0.000000	0.000000	0.000000	0.000000	0.000000	0.000000	0.000000	0.000000	0.000000	0.000000	0.000000	0.000000	47.709654	405.295600	1.240316	1.068895	0.000000	0.242665	-0.000000	4.233271	0.000000	-45.757023	458.142250	-2.757338	1.388932	0.000000	0.251189	0.000000	-3.102024	0.000000
0.001500	0.000000	0.000000	0.000000	0.000000	0.000000	0.000000	0.000000	0.000000	0.000000	0.000000	0.000000	0.000000	0.000000	0.000000	0.000000	0.000000	0.000000	0.000000	0.000000	0.000000	0.000000	0.000000	0.000000	0.000000	0.000000	0.000000	0.000000	47.709880	405.285257	1.255011	1.068901	0.000000	0.242655	-0.000000	4.230206	0.000000	-45.726348	458.195947	-2.748698	1.388938	0.000000	0.251198	0.000000	-3.104358	0.000000
0.002000	0.000000	0.000000	0.000000	0.000000	0.000000	0.000000	0.000000	0.000000	0.000000	0.000000	0.000000	0.000000	0.000000	0.000000	0.000000	0.000000	0.000000	0.000000	0.000000	0.000000	0.000000	0.000000	0.000000	0.000000	0.000000	0.000000	0.000000	47.709550	405.275107	1.269568	1.068907	0.000000	0.242644	-0.000000	4.227072	0.000000	-45.695696	458.247616	-2.740101	1.388943	0.000000	0.251208	0.000000	-3.106647	0.000000
0.002500	0.000000	0.000000	0.000000	0.000000	0.000000	0.000000	0.000000	0.000000	0.000000	0.000000	0.000000	0.000000	0.000000	0.000000	0.000000	0.000000	0.000000	0.000000	0.000000	0.000000	0.000000	0.000000	0.000000	0.000000	0.000000	0.000000	0.000000	47.708643	405.265107	1.283961	1.068912	0.000000	0.242633	-0.000000	4.223880	0.000000	-45.665152	458.297085	-2.731574	1.388949	0.000000	0.251217	0.000000	-3.108883	0.000000
0.003000	0.000000	0.000000	0.000000	0.000000	0.000000	0.000000	0.000000	0.000000	0.000000	0.000000	0.000000	0.000000	0.000000	0.000000	0.000000	0.000000	0.000000	0.000000	0.000000	0.000000	0.000000	0.000000	0.000000	0.000000	0.000000	0.000000	0.000000	47.707142	405.255215	1.298166	1.068918	0.000000	0.242622	-0.000000	4.220639	0.000000	-45.634795	458.344209	-2.723137	1.388954	0.000000	0.251226	0.000000	-3.111059	0.000000
0.003500	0.000000	0.000000	0.000000	0.000000	0.000000	0.000000	0.000000	0.000000	0.000000	0.000000	0.000000	0.000000	0.000000	0.000000	0.000000	0.000000	0.000000	0.000000	0.000000	0.000000	0.000000	0.000000	0.000000	0.000000	0.000000	0.000000	0.000000	47.705037	405.245388	1.312162	1.068923	0.000000	0.242610	-0.000000	4.217365	0.000000	-45.604693	458.388881	-2.714809	1.388959	0.000000	0.251234	0.000000	-3.113172	0.000000
0.004000	0.000000	0.000000	0.000000	0.000000	0.000000	0.000000	0.000000	0.000000	0.000000	0.000000	0.000000	0.000000	0.000000	0.000000	0.000000	0.000000	0.000000	0.000000	0.000000	0.000000	0.000000	0.000000	0.000000	0.000000	0.000000	0.000000	0.000000	47.702326	405.235575	1.325936	1.068928	0.000000	0.242598	-0.000000	4.214071	0.000000	-45.574909	458.431027	-2.706608	1.388963	0.000000	0.251241	0.000000	-3.115217	0.000000
0.004500	0.000000	0.000000	0.000000	0.000000	0.000000	0.000000	0.000000	0.000000	0.000000	0.000000	0.000000	0.000000	0.000000	0.000000	0.000000	0.000000	0.000000	0.000000	0.000000	0.000000	0.000000	0.000000	0.000000	0.000000	0.000000	0.000000	0.000000	47.699016	405.225713	1.339480	1.068933	0.000000	0.242585	-0.000000	4.210773	0.000000	-45.545501	458.470601	-2.698550	1.388968	0.000000	0.251248	0.000000	-3.117191	0.000000
0.005000	0.000000	0.000000	0.000000	0.000000	0.000000	0.000000	0.000000	0.000000	0.000000	0.000000	0.000000	0.000000	0.000000	0.000000	0.000000	0.000000	0.000000	0.000000	0.000000	0.000000	0.000000	0.000000	0.000000	0.000000	0.000000	0.000000	0.000000	47.695118	405.215733	1.352787	1.068938	0.000000	0.242572	-0.000000	4.207483	0.000000	-45.516518	458.507571	-2.690656	1.388973	0.000000	0.251254	0.000000	-3.119090	0.000000
0.005500	0.000000	0.000000	0.000000	0.000000	0.000000	0.000000	0.000000	0.000000	0.000000	0.000000	0.000000	0.000000	0.000000	0.000000	0.000000	0.000000	0.000000	0.000000	0.000000	0.000000	0.000000	0.000000	0.000000	0.000000	0.000000	0.000000	0.000000	47.690651	405.205557	1.365856	1.068943	0.000000	0.242558	-0.000000	4.204213	0.000000	-45.488004	458.541923	-2.682949	1.388977	0.000000	0.251260	0.000000	-3.120911	0.000000
0.006000	0.000000	0.000000	0.000000	0.000000	0.000000	0.000000	0.000000	0.000000	0.000000	0.000000	0.000000	0.000000	0.000000	0.000000	0.000000	0.000000	0.000000	0.000000	0.000000	0.000000	0.000000	0.000000	0.000000	0.000000	0.000000	0.000000	0.000000	47.685640	405.195093	1.378687	1.068948	0.000000	0.242544	-0.000000	4.200972	0.000000	-45.459996	458.573666	-2.675452	1.388981	0.000000	0.251265	0.000000	-3.122649	0.000000
0.006500	0.000000	0.000000	0.000000	0.000000	0.000000	0.000000	0.000000	0.000000	0.000000	0.000000	0.000000	0.000000	0.000000	0.000000	0.000000	0.000000	0.000000	0.000000	0.000000	0.000000	0.000000	0.000000	0.000000	0.000000	0.000000	0.000000	0.000000	47.680111	405.184250	1.391286	1.068953	0.000000	0.242530	-0.000000	4.197772	0.000000	-45.432525	458.602820	-2.668190	1.388985	0.000000	0.251269	0.000000	-3.124299	0.000000
0.007000	0.000000	0.000000	0.000000	0.000000	0.000000	0.000000	0.000000	0.000000	0.000000	0.000000	0.000000	0.000000	0.000000	0.000000	0.000000	0.000000	0.000000	0.000000	0.000000	0.000000	0.000000	0.000000	0.000000	0.000000	0.000000	0.000000	0.000000	47.674089	405.172943	1.403661	1.068958	0.000000	0.242515	-0.000000	4.194621	0.000000	-45.405615	458.629410	-2.661186	1.388989	0.000000	0.251273	0.000000	-3.125859	0.000000
0.007500	0.000000	0.000000	0.000000	0.000000	0.000000	0.000000	0.000000	0.000000	0.000000	0.000000	0.000000	0.000000	0.000000	0.000000	0.000000	0.000000	0.000000	0.000000	0.000000	0.000000	0.000000	0.000000	0.000000	0.000000	0.000000	0.000000	0.000000	47.667601	405.161107	1.415824	1.068964	0.000000	0.242500	-0.000000	4.191534	0.000000	-45.379284	458.653458	-2.654466	1.388993	0.000000	0.251276	0.000000	-3.127327	0.000000
0.008000	0.000000	0.000000	0.000000	0.000000	0.000000	0.000000	0.000000	0.000000	0.000000	0.000000	0.000000	0.000000	0.000000	0.000000	0.000000	0.000000	0.000000	0.000000	0.000000	0.000000	0.000000	0.000000	0.000000	0.000000	0.000000	0.000000	0.000000	47.660668	405.148697	1.427782	1.068969	0.000000	0.242485	-0.000000	4.188519	0.000000	-45.353545	458.674983	-2.648051	1.388997	0.000000	0.251278	0.000000	-3.128701	0.000000
0.008500	0.000000	0.000000	0.000000	0.000000	0.000000	0.000000	0.000000	0.000000	0.000000	0.000000	0.000000	0.000000	0.000000	0.000000	0.000000	0.000000	0.000000	0.000000	0.000000	0.000000	0.000000	0.000000	0.000000	0.000000	0.000000	0.000000	0.000000	47.653313	405.135685	1.439544	1.068975	0.000000	0.242469	-0.000000	4.185589	0.000000	-45.328407	458.694006	-2.641964	1.389001	0.000000	0.251279	0.000000	-3.129982	0.000000
0.009000	0.000000	0.000000	0.000000	0.000000	0.000000	0.000000	0.000000	0.000000	0.000000	0.000000	0.000000	0.000000	0.000000	0.000000	0.000000	0.000000	0.000000	0.000000	0.000000	0.000000	0.000000	0.000000	0.000000	0.000000	0.000000	0.000000	0.000000	47.645561	405.122054	1.451115	1.068980	0.000000	0.242453	-0.000000	4.182753	0.000000	-45.303872	458.710554	-2.636226	1.389005	0.000000	0.251280	0.000000	-3.131173	0.000000
0.009500	0.000000	0.000000	0.000000	0.000000	0.000000	0.000000	0.000000	0.000000	0.000000	0.000000	0.000000	0.000000	0.000000	0.000000	0.000000	0.000000	0.000000	0.000000	0.000000	0.000000	0.000000	0.000000	0.000000	0.000000	0.000000	0.000000	0.000000	47.637440	405.107803	1.462497	1.068986	0.000000	0.242437	-0.000000	4.180019	0.000000	-45.279941	458.724664	-2.630850	1.389009	0.000000	0.251280	0.000000	-3.132278	0.000000
0.010000	0.000000	0.000000	0.000000	0.000000	0.000000	0.000000	0.000000	0.000000	0.000000	0.000000	0.000000	0.000000	0.000000	0.000000	0.000000	0.000000	0.000000	0.000000	0.000000	0.000000	0.000000	0.000000	0.000000	0.000000	0.000000	0.000000	0.000000	47.628984	405.092947	1.473695	1.068991	0.000000	0.242421	-0.000000	4.177396	0.000000	-45.256615	458.736387	-2.625848	1.389013	0.000000	0.251279	0.000000	-3.133303	0.000000
